<svg xmlns="http://www.w3.org/2000/svg" xmlns:xlink="http://www.w3.org/1999/xlink" xmlns:fi="http://pattern.flaticon.com/" x="0" y="0" width="1000" height="500" viewBox="0 0 1750 875"><rect x="0px" y="0px" width="100%" height="100%" opacity="1" fill="#6b48ff"/><defs><g transform="matrix(0.13552894346597136 0.0854421551051398 -0.0854421551051398 0.13552894346597136 232.97903855162696 46.966768149633175)" id="L1_0"><path d="M472.001,392H163.313L53.657,282.344c-3.07-3.178-8.134-3.266-11.312-0.196s-3.266,8.134-0.196,11.312    c0.064,0.067,0.13,0.132,0.196,0.196l38.528,38.528L36.001,392h-28c-4.418,0-8,3.582-8,8s3.582,8,8,8h41.056L9.345,467.56    c-2.452,3.676-1.46,8.644,2.216,11.096s8.644,1.46,11.096-2.216L68.281,408h99.72v64c0,4.418,3.582,8,8,8s8-3.582,8-8v-64h219.72    l45.6,68.44c2.452,3.676,7.42,4.668,11.096,2.216s4.668-7.42,2.216-11.096L422.945,408h49.056c4.418,0,8-3.582,8-8    S476.419,392,472.001,392z M56.001,392l36.296-48.392L140.689,392H56.001z" fill="#9a47ff"/><path d="M448.001,336H195.313l-11.312-11.312V163.2c4.769,3.088,10.319,4.753,16,4.8c6.407-0.036,12.636-2.113,17.784-5.928    c3.719-2.656,8.713-2.656,12.432,0c10.534,7.917,25.034,7.917,35.568,0c3.719-2.656,8.713-2.656,12.432,0    c11.28,8.443,26.937,7.808,37.496-1.52c2.744-2.291,4.286-5.714,4.184-9.288C317.065,80.536,254.169,24,176.001,24    C90.025,24,34.585,80.528,32.089,151.248c-0.089,3.581,1.456,7.008,4.2,9.312c5.477,4.746,12.466,7.383,19.712,7.44    c6.407-0.036,12.636-2.113,17.784-5.928c3.719-2.656,8.713-2.656,12.432,0c10.534,7.917,25.034,7.917,35.568,0    c3.719-2.656,8.713-2.656,12.432,0c9.886,7.492,23.42,7.944,33.784,1.128v145.52l-58.344-58.344    c-3.124-3.123-8.188-3.123-11.312,0l-24,24c-3.123,3.124-3.123,8.188,0,11.312l96,96c1.505,1.489,3.539,2.32,5.656,2.312h272    c4.418,0,8-3.582,8-8v-32C456.001,339.582,452.419,336,448.001,336z M160.369,149.136c-2.414,1.821-5.345,2.824-8.368,2.864    c-3.023-0.043-5.953-1.046-8.368-2.864c-9.333-6.735-21.931-6.735-31.264,0c-4.923,3.825-11.813,3.825-16.736,0    c-9.333-6.735-21.931-6.735-31.264,0c-2.414,1.821-5.345,2.824-8.368,2.864c-2.795-0.031-5.517-0.898-7.816-2.488    C51.641,84.912,103.865,40,176.001,40c68.336,0,124,47.92,127.792,109.536c-2.296,1.576-5.008,2.433-7.792,2.464    c-3.023-0.043-5.953-1.046-8.368-2.864c-9.333-6.736-21.931-6.736-31.264,0c-4.923,3.825-11.813,3.825-16.736,0    c-9.333-6.736-21.931-6.736-31.264,0c-4.923,3.825-11.813,3.825-16.736,0C182.3,142.4,169.702,142.4,160.369,149.136z     M440.001,368H179.313l-88-88l12.688-12.688l66.336,66.336l16,16c1.501,1.505,3.539,2.352,5.664,2.352h248V368z" fill="#9a47ff"/><path d="M408.001,35.552C387.88,35.574,371.575,51.879,371.553,72c0,20.13,16.318,36.448,36.448,36.448    c20.13,0,36.448-16.318,36.448-36.448S428.131,35.552,408.001,35.552z M408.001,92.448c-11.293,0-20.448-9.155-20.448-20.448    c0.013-11.288,9.16-20.435,20.448-20.448c11.293,0,20.448,9.155,20.448,20.448S419.294,92.448,408.001,92.448z" fill="#9a47ff"/><path d="M358.217,64h-14.216c-4.418,0-8,3.582-8,8s3.582,8,8,8h14.216c4.418,0,8-3.582,8-8S362.635,64,358.217,64z" fill="#9a47ff"/><path d="M378.465,31.152l-10.064-10.064c-3.178-3.069-8.243-2.981-11.312,0.197c-2.994,3.1-2.994,8.015,0,11.115l10.064,10.064    c3.178,3.07,8.242,2.982,11.312-0.196C381.459,39.167,381.459,34.252,378.465,31.152z" fill="#9a47ff"/><path d="M408.001,0c-4.418,0-8,3.582-8,8v14.216c0,4.418,3.582,8,8,8s8-3.582,8-8V8C416.001,3.582,412.419,0,408.001,0z" fill="#9a47ff"/><path d="M458.913,21.088c-3.124-3.123-8.188-3.123-11.312,0l-10.064,10.064c-3.178,3.07-3.266,8.134-0.196,11.312    s8.134,3.266,11.312,0.196c0.067-0.064,0.132-0.13,0.196-0.196L458.913,32.4C462.036,29.276,462.036,24.212,458.913,21.088z" fill="#9a47ff"/><path d="M472.001,64h-14.216c-4.418,0-8,3.582-8,8s3.582,8,8,8h14.216c4.418,0,8-3.582,8-8S476.419,64,472.001,64z" fill="#9a47ff"/><path d="M458.913,111.6l-10.064-10.064c-3.124-3.123-8.188-3.123-11.312,0c-3.123,3.124-3.123,8.188,0,11.312l10.064,10.064    c3.178,3.07,8.242,2.982,11.312-0.196C461.907,119.615,461.907,114.7,458.913,111.6z" fill="#9a47ff"/><path d="M408.001,113.784c-4.418,0-8,3.582-8,8V136c0,4.418,3.582,8,8,8s8-3.582,8-8v-14.216    C416.001,117.366,412.419,113.784,408.001,113.784z" fill="#9a47ff"/><path d="M378.269,101.536c-3.1-2.994-8.015-2.994-11.116,0L357.089,111.6c-3.178,3.07-3.266,8.134-0.196,11.312    c3.07,3.178,8.134,3.266,11.312,0.196c0.067-0.064,0.132-0.13,0.196-0.196l10.064-10.064    C381.534,109.67,381.447,104.605,378.269,101.536z" fill="#9a47ff"/></g><g transform="matrix(0.11862839013338089 0 0 0.11862839013338089 78.96536557376385 -5.462188608420547)" id="L1_1"><path d="M 141.855469 276.789062 C 167.320312 277.382812 192.632812 272.679688 216.1875 262.980469 C 237.519531 254.109375 260.484375 249.808594 283.578125 250.359375 C 306.679688 249.808594 329.636719 254.109375 350.972656 262.980469 C 374.527344 272.679688 399.835938 277.382812 425.300781 276.789062 C 450.839844 277.390625 476.222656 272.664062 499.832031 262.914062 C 503.996094 261.328125 508.160156 259.808594 512.515625 258.355469 C 530.058594 252.636719 548.449219 249.960938 566.894531 250.425781 C 589.996094 249.871094 612.953125 254.171875 634.289062 263.046875 C 657.84375 272.746094 683.15625 277.449219 708.617188 276.851562 L 708.617188 257.035156 C 685.523438 257.589844 662.5625 253.285156 641.226562 244.414062 C 626.753906 238.507812 611.589844 234.449219 596.097656 232.320312 C 622.550781 198.433594 616.519531 149.527344 582.628906 123.078125 C 548.738281 96.632812 499.832031 102.664062 473.386719 136.546875 C 470.03125 140.851562 467.136719 145.488281 464.75 150.398438 C 446.316406 119.347656 406.210938 58.625 361.082031 34.507812 C 303.464844 3.917969 225.039062 -7.511719 208.523438 6.230469 C 205.34375 8.816406 203.746094 12.871094 204.292969 16.933594 C 205.613281 26.253906 215.726562 30.613281 242.613281 42.308594 C 271.949219 54.996094 316.285156 74.21875 332.671875 97.605469 C 347.40625 118.605469 359.519531 141.328125 368.746094 165.265625 L 284.769531 175.046875 C 280.078125 175.835938 173.765625 194.140625 103.929688 253.46875 C 93.898438 251.21875 84.070312 248.175781 74.527344 244.351562 C 50.972656 234.65625 25.660156 229.949219 0.195312 230.542969 L 0.195312 250.367188 C 23.296875 249.8125 46.253906 254.113281 67.589844 262.988281 C 91.125 272.675781 116.410156 277.378906 141.855469 276.789062 Z M 534.519531 126.738281 C 566.597656 126.683594 592.636719 152.648438 592.691406 184.722656 C 592.710938 198.886719 587.558594 212.574219 578.195312 223.203125 L 569.9375 230.601562 L 567.03125 230.601562 C 548.511719 230.234375 530.054688 232.640625 512.253906 237.742188 L 507.101562 236.152344 C 478.820312 220.945312 468.222656 185.6875 483.4375 157.402344 C 493.554688 138.601562 513.164062 126.847656 534.519531 126.808594 Z M 287.480469 194.660156 L 394.648438 182.304688 L 391.414062 171.074219 C 381.574219 140.800781 367.15625 112.210938 348.664062 86.304688 C 328.839844 58.355469 283.515625 38.597656 250.285156 24.195312 L 241.097656 20.164062 C 279.6875 23.226562 317.273438 34.058594 351.570312 52.011719 C 403.371094 79.5 450.675781 165.191406 457.285156 176.953125 C 457.285156 179.53125 456.886719 182.109375 456.886719 184.753906 C 456.675781 208.84375 467.660156 231.660156 486.617188 246.527344 C 466.949219 254 446.003906 257.550781 424.976562 256.96875 C 401.875 257.527344 378.917969 253.222656 357.582031 244.347656 C 334.027344 234.648438 308.71875 229.945312 283.253906 230.539062 C 257.855469 229.972656 232.609375 234.675781 209.117188 244.347656 C 187.785156 253.222656 164.824219 257.523438 141.726562 256.96875 C 138.089844 256.96875 134.652344 256.96875 131.417969 256.96875 C 196.894531 209.394531 286.953125 194.792969 287.480469 194.660156 Z M 287.480469 194.660156 " fill="#9a47ff" fill-opacity="1" stroke="none"/><path d="M 141.855469 387.066406 C 167.320312 387.65625 192.632812 382.957031 216.1875 373.253906 C 237.519531 364.382812 260.484375 360.078125 283.578125 360.636719 C 306.679688 360.078125 329.636719 364.382812 350.972656 373.253906 C 374.527344 382.957031 399.835938 387.660156 425.300781 387.066406 C 450.835938 387.683594 476.21875 382.980469 499.832031 373.253906 C 521.167969 364.382812 544.125 360.078125 567.226562 360.636719 C 590.328125 360.078125 613.285156 364.382812 634.617188 373.253906 C 658.175781 382.957031 683.484375 387.660156 708.949219 387.066406 L 708.949219 367.242188 C 685.847656 367.796875 662.890625 363.496094 641.554688 354.625 C 618 344.921875 592.691406 340.222656 567.226562 340.816406 C 541.761719 340.222656 516.453125 344.925781 492.894531 354.625 C 471.5625 363.496094 448.601562 367.796875 425.503906 367.242188 C 402.402344 367.796875 379.441406 363.496094 358.105469 354.625 C 334.554688 344.921875 309.242188 340.222656 283.777344 340.816406 C 258.203125 340.171875 232.769531 344.878906 209.117188 354.625 C 187.785156 363.496094 164.824219 367.796875 141.722656 367.242188 C 118.625 367.796875 95.664062 363.496094 74.332031 354.625 C 50.773438 344.921875 25.464844 340.222656 0 340.8125 L 0 360.636719 C 23.101562 360.078125 46.058594 364.378906 67.394531 373.253906 C 90.988281 382.980469 116.347656 387.679688 141.855469 387.066406 Z M 141.855469 387.066406 " fill="#9a47ff" fill-opacity="1" stroke="none"/></g><g transform="matrix(0.13114038109779358 0 0 0.13114038109779358 109 173)" id="L1_3"><path d="M27.966,322.53c-5.857-5.858-15.355-5.858-21.213,0c-5.858,5.858-5.858,15.355,0,21.213   c22.514,22.515,59.147,22.515,81.661,0c5.24-5.24,12.207-8.125,19.618-8.125s14.377,2.886,19.617,8.125   c10.906,10.906,25.407,16.913,40.831,16.913c6.07,0,11.992-0.944,17.613-2.737l-30.354-30.354   c-2.504-1.298-4.824-2.983-6.876-5.035c-22.514-22.515-59.148-22.515-81.661,0c-5.24,5.24-12.207,8.125-19.618,8.125   C40.173,330.656,33.206,327.77,27.966,322.53z" fill="#9a47ff"/><path d="M188.097,386.93c-5.24,5.24-12.207,8.125-19.617,8.125c-7.41,0-14.377-2.885-19.617-8.125   c-22.514-22.515-59.148-22.515-81.661,0c-5.24,5.24-12.207,8.125-19.618,8.125c-7.411,0-14.377-2.886-19.618-8.125   c-5.857-5.858-15.355-5.858-21.213,0c-5.858,5.858-5.858,15.355,0,21.213c22.514,22.515,59.147,22.515,81.661,0   c5.24-5.24,12.207-8.125,19.618-8.125s14.377,2.886,19.617,8.125c10.906,10.906,25.407,16.913,40.831,16.913   c15.424,0,29.925-6.006,40.831-16.913c5.229-5.229,12.043-7.922,18.91-8.096l-24.338-24.338   C198.102,378.495,192.768,382.259,188.097,386.93z" fill="#9a47ff"/><path d="M272.334,100.508c5.45,1.675,11.178,2.548,17.042,2.548c15.424,0,29.925-6.006,40.83-16.913   c5.24-5.24,12.207-8.126,19.618-8.126c7.41,0,14.377,2.886,19.617,8.126c22.514,22.514,59.147,22.515,81.661,0   c5.858-5.858,5.858-15.355,0-21.213c-5.857-5.858-15.355-5.858-21.213,0c-5.24,5.24-12.207,8.125-19.617,8.125   c-7.411,0-14.378-2.886-19.618-8.125c-22.514-22.515-59.147-22.513-81.661,0c-5.24,5.24-12.207,8.125-19.617,8.125   c-7.41,0-14.377-2.885-19.617-8.125c-9.256-9.256-21.106-14.966-33.907-16.487c0.418,4.681-0.141,9.419-1.684,13.899   L272.334,100.508z" fill="#9a47ff"/><path d="M429.89,129.33c-10.816,10.817-28.419,10.817-39.235-0.001c-22.514-22.514-59.147-22.512-81.661,0.001   c-1.331,1.331-2.775,2.509-4.309,3.528l21.416,21.416c1.417-1.172,2.789-2.414,4.105-3.73   c10.816-10.817,28.417-10.817,39.235-0.001c11.258,11.258,26.042,16.887,40.831,16.886c14.785-0.001,29.574-5.629,40.83-16.885   c5.858-5.858,5.858-15.355,0-21.213C445.246,123.472,435.747,123.474,429.89,129.33z" fill="#9a47ff"/><path d="M450.534,306.992L223.368,79.825l-23.046,32.163c89.844,89.844,204.871,204.331,204.871,204.331   c14.446,14.447,14.446,37.953,0,52.399c-6.799,6.799-15.775,10.63-25.355,10.843c-0.213,9.581-4.044,18.557-10.843,25.355   c-14.481,14.481-37.917,14.482-52.399,0c0,0-200.273-200.262-204.661-204.65l-32.164,23.046l227.221,227.221   c4.66,4.66,10.768,6.99,16.877,6.99c6.108,0,12.216-2.33,16.877-6.99l109.789-109.789   C459.855,331.424,459.855,316.312,450.534,306.992z" fill="#9a47ff"/><path d="M94.423,36.575c4.472-3.416,9.856-5.757,15.821-6.562l55.79-7.522l-15.5-15.5C145.873,2.33,139.765,0,133.657,0   c-6.108,0-12.216,2.33-16.877,6.991L87.397,36.373c0.632-0.022,1.263-0.046,1.899-0.046C91.019,36.327,92.729,36.411,94.423,36.575   z" fill="#9a47ff"/><path d="M22.744,166.286l7.601-56.371c0.819-6.085,3.268-11.616,6.86-16.185c-0.222-2.316-0.281-4.645-0.196-6.968L6.991,116.78   c-9.321,9.321-9.321,24.433,0,33.753L22.744,166.286z" fill="#9a47ff"/><path d="M42.715,217.153c6.006,3.613,13.583,3.301,19.261-0.773l0,0l51.673-37.025c0,0,213.141,213.13,214.26,214.249   c8.221,8.221,21.55,8.222,29.772,0c8.22-8.22,8.223-21.549,0-29.772L238.698,244.849v0c3.233-3.233,3.101-3.101,6.427-6.427l0,0   l118.983,118.983c8.221,8.221,21.55,8.222,29.772,0c8.285-8.285,8.119-21.653,0-29.772   C269.854,203.608,282.402,216.696,179.41,113.704l37.301-52.059c4.084-5.701,4.374-13.273,0.773-19.261   c-3.574-5.939-10.42-9.277-17.377-8.343L122.73,44.474l-4.436,0.598c2.854,1.906,5.542,4.108,8.024,6.59   c7.349,7.349,12.037,16.359,14.095,25.831l0.028-0.004l24.079-3.247c-19.911,27.789-17.207,24.232-19.206,26.231l-0.198-0.198   c-5.109,5.109-37.934,37.934-43.134,43.134l0.198,0.198c-3.658,3.658,0.927,0.137-27.607,20.582l3.291-24.407h0   c-9.619-2.132-18.456-6.939-25.592-14.075c-2.593-2.593-4.854-5.395-6.788-8.349l-11.113,82.416   C33.437,206.714,36.716,213.544,42.715,217.153z" fill="#9a47ff"/><circle cx="89" cy="88" r="36" fill="#9a47ff"/></g><g transform="matrix(0.13623452304662081 -0.04025110787002261 0.04025110787002261 0.13623452304662081 272.65263055384395 254.05861667231835)" id="L1_4"><circle cx="193" cy="51" r="36" fill="#9a47ff"/><path d="M163.637,372.865c-5.057,3.474-10.978,5.447-17.212,5.696v57.679c0,11.627,9.425,21.052,21.052,21.052   c11.627,0,21.052-9.425,21.052-21.052v-39.864C176.057,394.65,166.051,385.107,163.637,372.865z" fill="#9a47ff"/><path d="M197.618,436.24c0,11.627,9.425,21.052,21.052,21.052c11.626,0,21.051-9.425,21.051-21.052v-39.578h-42.103V436.24z" fill="#9a47ff"/><path d="M70.886,86.355c1.549,3.079,3.972,5.634,6.964,7.345l68.567,39.197v71.928c18.123,7.59,30.949,25.478,31.053,46.287   c0.01,1.986,0.081,16.07,0.091,18.035c4.001-2.377,8.549-3.82,13.426-4.083v-2.027c0-16.904,13.752-30.656,30.657-30.656h17.695   v-95.442h13.189c0.782-2.246,1.508-4.345,2.175-6.287c4.288-12.477,9.796-21.811,15.831-28.799h-77.448   c-0.006,0-0.012,0.001-0.018,0.001c-0.006,0-30.26-0.001-30.26-0.001l-62.957-35.99L71.571,9.661   c-4.356-8.654-14.903-12.14-23.557-7.785c-8.655,4.355-12.14,14.901-7.785,23.557L70.886,86.355z" fill="#9a47ff"/><path d="M454.698,251.515c-0.284-0.777-28.557-78.13-41.009-114.363c-8.032-23.378-21.503-35.231-40.038-35.231   c-5.026,0-34.196,0-59.995,0c-22.148,0-33.514,16.327-40.664,37.048c-11.696,33.838-40.786,113.85-40.786,113.85   c-8.498,0-10.698-0.132-12.382,0.171c-0.079,0.014-0.161,0.02-0.24,0.037c-4.67,0.956-8.16,5.087-8.16,10.011   c0,8.981,0,13.492,0,22.419h-18.832c-5.014,0-9.079,4.065-9.079,9.08v72.61c0,5.014,4.065,9.079,9.079,9.079h110.558   c5.014,0,9.079-4.065,9.079-9.079v-72.61c0-5.015-4.065-9.08-9.079-9.08h-18.832c0-8.93,0-13.438,0-22.419   c0-5.644-4.575-10.219-10.219-10.219h0h-5.104c9.13-25.071,21.63-59.616,30.55-84.872c-0.867,7.092,0.914-2.754-12.645,67.247   c10.527,4.859,17.855,15.509,17.855,27.845v2.027c15.532,0.836,27.912,13.734,27.912,29.472c0,9.168,0,65.35,0,72.61   c0,16.275-13.241,29.517-29.517,29.517h-5.542v39.85c0,11.476,9.304,20.779,20.779,20.779s20.779-9.304,20.779-20.779V308.346   c2.987,0,5.984,0,8.972,0v128.167c0,11.476,9.304,20.779,20.779,20.779c11.476,0,20.779-9.304,20.779-20.779V308.346   c5.002,0,9.489,0,13.213,0c2.874,0,5.596-1.285,7.424-3.503c1.827-2.218,2.566-5.136,2.02-7.957   c-26.605-137.362-23.664-121.338-24.595-128.947c13.868,39.26,34.172,94.81,34.413,95.469c3.289,8.995,13.244,13.596,22.209,10.316   C453.363,270.441,457.983,260.498,454.698,251.515z M248.87,274.782c2.462,0,4.867-0.54,7.07-1.526h7.941h0v12.2h-32.02v-12.2h0   h9.957C244.055,274.25,246.316,274.782,248.87,274.782z" fill="#9a47ff"/><path d="M145.152,358.595c7.101-0.035,12.829-5.821,12.793-12.922l-0.475-94.461c-0.084-16.693-13.734-30.275-30.427-30.275   c-8.954,0-43.707,0-57.807,0l-34.365-13.114l-7.815-44.125c-1.242-7.015-7.983-11.644-14.903-10.419   c-6.993,1.239-11.657,7.911-10.418,14.903l9.086,51.299c0.788,4.45,3.854,8.159,8.077,9.77l39.371,15.024l0.006,197.586   c0,8.521,6.908,15.43,15.429,15.43c8.521,0,15.429-6.908,15.429-15.43c0-107.688,0.01-96.494-0.019-97.705h6.7   c-0.028,1.142-0.019-9.27-0.019,97.705c0,8.521,6.908,15.43,15.429,15.43c8.521,0,15.429-6.908,15.429-15.43v-68.956   l-0.269-121.545c-0.003-1.482,1.194-2.686,2.675-2.692c1.482-0.006,2.688,1.19,2.696,2.672l0,0l0.475,94.461   c0.035,7.079,5.785,12.793,12.856,12.793C145.108,358.595,145.131,358.595,145.152,358.595z" fill="#9a47ff"/><path d="M59.373,177.803c0,7.844,2.721,15.048,7.262,20.735c6.095,7.634,15.475,12.531,26.003,12.531   c9.379,0,17.845-3.887,23.892-10.131c5.799-5.987,9.373-14.141,9.373-23.135c0-18.372-14.893-33.265-33.266-33.265   S59.373,159.431,59.373,177.803z" fill="#9a47ff"/><path d="M343.654,90.481c19.722,0,35.888-15.984,35.888-35.888c0-19.82-16.067-35.887-35.888-35.887   c-19.82,0-35.888,16.067-35.888,35.887C307.766,74.415,323.867,90.481,343.654,90.481z" fill="#9a47ff"/></g></defs><g fi:class="KUsePattern"><pattern id="pattern_L1_0" width="350" height="350" patternUnits="userSpaceOnUse"><use xlink:href="#L1_0" x="-350" y="-350"/><use xlink:href="#L1_0" x="0" y="-350"/><use xlink:href="#L1_0" x="350" y="-350"/><use xlink:href="#L1_0" x="-350" y="0"/><use xlink:href="#L1_0" x="0" y="0"/><use xlink:href="#L1_0" x="350" y="0"/><use xlink:href="#L1_0" x="-350" y="350"/><use xlink:href="#L1_0" x="0" y="350"/><use xlink:href="#L1_0" x="350" y="350"/></pattern><rect x="0" y="0" width="100%" height="100%" fill="url(#pattern_L1_0)"/></g><g fi:class="KUsePattern"><pattern id="pattern_L1_1" width="350" height="350" patternUnits="userSpaceOnUse"><use xlink:href="#L1_1" x="-350" y="-350"/><use xlink:href="#L1_1" x="0" y="-350"/><use xlink:href="#L1_1" x="350" y="-350"/><use xlink:href="#L1_1" x="-350" y="0"/><use xlink:href="#L1_1" x="0" y="0"/><use xlink:href="#L1_1" x="350" y="0"/><use xlink:href="#L1_1" x="-350" y="350"/><use xlink:href="#L1_1" x="0" y="350"/><use xlink:href="#L1_1" x="350" y="350"/></pattern><rect x="0" y="0" width="100%" height="100%" fill="url(#pattern_L1_1)"/></g><g fi:class="KUsePattern"><pattern id="pattern_L1_3" width="350" height="350" patternUnits="userSpaceOnUse"><use xlink:href="#L1_3" x="-350" y="-350"/><use xlink:href="#L1_3" x="0" y="-350"/><use xlink:href="#L1_3" x="350" y="-350"/><use xlink:href="#L1_3" x="-350" y="0"/><use xlink:href="#L1_3" x="0" y="0"/><use xlink:href="#L1_3" x="350" y="0"/><use xlink:href="#L1_3" x="-350" y="350"/><use xlink:href="#L1_3" x="0" y="350"/><use xlink:href="#L1_3" x="350" y="350"/></pattern><rect x="0" y="0" width="100%" height="100%" fill="url(#pattern_L1_3)"/></g><g fi:class="KUsePattern"><pattern id="pattern_L1_4" width="350" height="350" patternUnits="userSpaceOnUse"><use xlink:href="#L1_4" x="-350" y="-350"/><use xlink:href="#L1_4" x="0" y="-350"/><use xlink:href="#L1_4" x="350" y="-350"/><use xlink:href="#L1_4" x="-350" y="0"/><use xlink:href="#L1_4" x="0" y="0"/><use xlink:href="#L1_4" x="350" y="0"/><use xlink:href="#L1_4" x="-350" y="350"/><use xlink:href="#L1_4" x="0" y="350"/><use xlink:href="#L1_4" x="350" y="350"/></pattern><rect x="0" y="0" width="100%" height="100%" fill="url(#pattern_L1_4)"/></g></svg>